<svg width="14" height="13" viewBox="0 0 14 13" fill="none" xmlns="http://www.w3.org/2000/svg">
<path opacity="0.34" fill-rule="evenodd" clip-rule="evenodd" d="M10.7077 13.0004C10.6024 13.0004 10.4964 12.9758 10.3991 12.9251L6.99975 11.1491L3.60108 12.9251C3.37575 13.0418 3.10375 13.0218 2.89975 12.8724C2.69442 12.7231 2.59242 12.4704 2.63575 12.2204L3.28308 8.46844L0.536415 5.81177C0.353749 5.6351 0.287749 5.36977 0.365749 5.1271C0.443749 4.88577 0.652415 4.7091 0.904415 4.6731L4.70442 4.1211L6.40308 0.70377C6.62842 0.250436 7.37175 0.250436 7.59708 0.70377L9.29575 4.1211L13.0957 4.6731C13.3477 4.7091 13.5564 4.88577 13.6344 5.1271C13.7124 5.36977 13.6464 5.6351 13.4637 5.81177L10.7171 8.46844L11.3644 12.2204C11.4077 12.4704 11.3051 12.7231 11.1004 12.8724C10.9844 12.9578 10.8464 13.0004 10.7077 13.0004Z" fill="white"/>
</svg>
